<?xml version="1.0" encoding="UTF-8" standalone="no"?>
<!DOCTYPE svg PUBLIC "-//W3C//DTD SVG 1.1//EN"
 "http://www.w3.org/Graphics/SVG/1.1/DTD/svg11.dtd">
<!-- Generated by graphviz version 2.38.0 (20140413.2041)
 -->
<!-- Title: controllers_diagram Pages: 1 -->
<svg width="896pt" height="396pt"
 viewBox="0.00 0.00 895.77 396.00" xmlns="http://www.w3.org/2000/svg" xmlns:xlink="http://www.w3.org/1999/xlink">
<g id="graph0" class="graph" transform="scale(1 1) rotate(0) translate(4 392)">
<title>controllers_diagram</title>
<polygon fill="white" stroke="none" points="-4,4 -4,-392 891.769,-392 891.769,4 -4,4"/>
<!-- _diagram_info -->
<g id="node1" class="node"><title>_diagram_info</title>
<text text-anchor="start" x="146.43" y="-335.6" font-family="Times,serif" font-size="13.00">Controllers diagram</text>
<text text-anchor="start" x="146.43" y="-322.6" font-family="Times,serif" font-size="13.00">Date: Dec 12 2014 &#45; 15:16</text>
<text text-anchor="start" x="146.43" y="-309.6" font-family="Times,serif" font-size="13.00">Migration version: 20141122173448</text>
<text text-anchor="start" x="146.43" y="-296.6" font-family="Times,serif" font-size="13.00">Generated by RailRoady 1.2.0</text>
<text text-anchor="start" x="146.43" y="-283.6" font-family="Times,serif" font-size="13.00">http://railroady.prestonlee.com</text>
</g>
<!-- ApplicationController -->
<g id="node2" class="node"><title>ApplicationController</title>
<path fill="none" stroke="black" d="M375.059,-239.5C375.059,-239.5 490.7,-239.5 490.7,-239.5 496.7,-239.5 502.7,-245.5 502.7,-251.5 502.7,-251.5 502.7,-375.5 502.7,-375.5 502.7,-381.5 496.7,-387.5 490.7,-387.5 490.7,-387.5 375.059,-387.5 375.059,-387.5 369.059,-387.5 363.059,-381.5 363.059,-375.5 363.059,-375.5 363.059,-251.5 363.059,-251.5 363.059,-245.5 369.059,-239.5 375.059,-239.5"/>
<text text-anchor="middle" x="432.879" y="-372.3" font-family="Times,serif" font-size="14.00">ApplicationController</text>
<polyline fill="none" stroke="black" points="363.059,-365.5 502.7,-365.5 "/>
<polyline fill="none" stroke="black" points="363.059,-341.5 502.7,-341.5 "/>
<polyline fill="none" stroke="black" points="363.059,-317.5 502.7,-317.5 "/>
<text text-anchor="start" x="371.059" y="-302.3" font-family="Times,serif" font-size="14.00">_layout</text>
<text text-anchor="start" x="371.059" y="-288.3" font-family="Times,serif" font-size="14.00">current_user</text>
<text text-anchor="start" x="371.059" y="-274.3" font-family="Times,serif" font-size="14.00">is_admin?</text>
<text text-anchor="start" x="371.059" y="-260.3" font-family="Times,serif" font-size="14.00">require_admin</text>
<text text-anchor="start" x="371.059" y="-246.3" font-family="Times,serif" font-size="14.00">require_signin</text>
</g>
<!-- HomeController -->
<g id="node3" class="node"><title>HomeController</title>
<path fill="none" stroke="black" d="M12,-56.5C12,-56.5 95.7588,-56.5 95.7588,-56.5 101.759,-56.5 107.759,-62.5 107.759,-68.5 107.759,-68.5 107.759,-134.5 107.759,-134.5 107.759,-140.5 101.759,-146.5 95.7588,-146.5 95.7588,-146.5 12,-146.5 12,-146.5 6,-146.5 0,-140.5 0,-134.5 0,-134.5 0,-68.5 0,-68.5 0,-62.5 6,-56.5 12,-56.5"/>
<text text-anchor="middle" x="53.8794" y="-131.3" font-family="Times,serif" font-size="14.00">HomeController</text>
<polyline fill="none" stroke="black" points="0,-124.5 107.759,-124.5 "/>
<text text-anchor="start" x="8" y="-109.3" font-family="Times,serif" font-size="14.00">index</text>
<polyline fill="none" stroke="black" points="0,-102.5 107.759,-102.5 "/>
<polyline fill="none" stroke="black" points="0,-78.5 107.759,-78.5 "/>
<text text-anchor="start" x="8" y="-63.3" font-family="Times,serif" font-size="14.00">_layout</text>
</g>
<!-- ApplicationController&#45;&gt;HomeController -->
<g id="edge1" class="edge"><title>ApplicationController&#45;&gt;HomeController</title>
<path fill="none" stroke="black" d="M362.869,-243.842C359.915,-242.091 356.916,-240.467 353.879,-239 257.947,-192.654 205.951,-261.459 116.879,-203 96.4785,-189.611 81.4655,-167.083 71.2236,-146.746"/>
</g>
<!-- IdentityProvidersController -->
<g id="node4" class="node"><title>IdentityProvidersController</title>
<path fill="none" stroke="black" d="M137.503,-0.5C137.503,-0.5 284.255,-0.5 284.255,-0.5 290.255,-0.5 296.255,-6.5 296.255,-12.5 296.255,-12.5 296.255,-190.5 296.255,-190.5 296.255,-196.5 290.255,-202.5 284.255,-202.5 284.255,-202.5 137.503,-202.5 137.503,-202.5 131.503,-202.5 125.503,-196.5 125.503,-190.5 125.503,-190.5 125.503,-12.5 125.503,-12.5 125.503,-6.5 131.503,-0.5 137.503,-0.5"/>
<text text-anchor="middle" x="210.879" y="-187.3" font-family="Times,serif" font-size="14.00">IdentityProvidersController</text>
<polyline fill="none" stroke="black" points="125.503,-180.5 296.255,-180.5 "/>
<text text-anchor="start" x="133.503" y="-165.3" font-family="Times,serif" font-size="14.00">create</text>
<text text-anchor="start" x="133.503" y="-151.3" font-family="Times,serif" font-size="14.00">destroy</text>
<text text-anchor="start" x="133.503" y="-137.3" font-family="Times,serif" font-size="14.00">edit</text>
<text text-anchor="start" x="133.503" y="-123.3" font-family="Times,serif" font-size="14.00">index</text>
<text text-anchor="start" x="133.503" y="-109.3" font-family="Times,serif" font-size="14.00">new</text>
<text text-anchor="start" x="133.503" y="-95.3" font-family="Times,serif" font-size="14.00">show</text>
<text text-anchor="start" x="133.503" y="-81.3" font-family="Times,serif" font-size="14.00">update</text>
<polyline fill="none" stroke="black" points="125.503,-74.5 296.255,-74.5 "/>
<polyline fill="none" stroke="black" points="125.503,-50.5 296.255,-50.5 "/>
<text text-anchor="start" x="133.503" y="-35.3" font-family="Times,serif" font-size="14.00">_layout</text>
<text text-anchor="start" x="133.503" y="-21.3" font-family="Times,serif" font-size="14.00">identity_provider_params</text>
<text text-anchor="start" x="133.503" y="-7.3" font-family="Times,serif" font-size="14.00">set_identity_provider</text>
</g>
<!-- ApplicationController&#45;&gt;IdentityProvidersController -->
<g id="edge2" class="edge"><title>ApplicationController&#45;&gt;IdentityProvidersController</title>
<path fill="none" stroke="black" d="M363.048,-246.745C359.975,-244.1 356.91,-241.509 353.879,-239 333.063,-221.767 325.085,-220.945 304.879,-203 302.021,-200.462 299.153,-197.848 296.288,-195.179"/>
</g>
<!-- JwkController -->
<g id="node5" class="node"><title>JwkController</title>
<path fill="none" stroke="black" d="M325.828,-56.5C325.828,-56.5 397.931,-56.5 397.931,-56.5 403.931,-56.5 409.931,-62.5 409.931,-68.5 409.931,-68.5 409.931,-134.5 409.931,-134.5 409.931,-140.5 403.931,-146.5 397.931,-146.5 397.931,-146.5 325.828,-146.5 325.828,-146.5 319.828,-146.5 313.828,-140.5 313.828,-134.5 313.828,-134.5 313.828,-68.5 313.828,-68.5 313.828,-62.5 319.828,-56.5 325.828,-56.5"/>
<text text-anchor="middle" x="361.879" y="-131.3" font-family="Times,serif" font-size="14.00">JwkController</text>
<polyline fill="none" stroke="black" points="313.828,-124.5 409.931,-124.5 "/>
<text text-anchor="start" x="321.828" y="-109.3" font-family="Times,serif" font-size="14.00">jwk</text>
<polyline fill="none" stroke="black" points="313.828,-102.5 409.931,-102.5 "/>
<polyline fill="none" stroke="black" points="313.828,-78.5 409.931,-78.5 "/>
<text text-anchor="start" x="321.828" y="-63.3" font-family="Times,serif" font-size="14.00">_layout</text>
</g>
<!-- ApplicationController&#45;&gt;JwkController -->
<g id="edge3" class="edge"><title>ApplicationController&#45;&gt;JwkController</title>
<path fill="none" stroke="black" d="M408.147,-239.347C397.701,-208.452 385.882,-173.494 376.804,-146.644"/>
</g>
<!-- OrganizationsController -->
<g id="node6" class="node"><title>OrganizationsController</title>
<path fill="none" stroke="black" d="M439.964,-0.5C439.964,-0.5 567.794,-0.5 567.794,-0.5 573.794,-0.5 579.794,-6.5 579.794,-12.5 579.794,-12.5 579.794,-190.5 579.794,-190.5 579.794,-196.5 573.794,-202.5 567.794,-202.5 567.794,-202.5 439.964,-202.5 439.964,-202.5 433.964,-202.5 427.964,-196.5 427.964,-190.5 427.964,-190.5 427.964,-12.5 427.964,-12.5 427.964,-6.5 433.964,-0.5 439.964,-0.5"/>
<text text-anchor="middle" x="503.879" y="-187.3" font-family="Times,serif" font-size="14.00">OrganizationsController</text>
<polyline fill="none" stroke="black" points="427.964,-180.5 579.794,-180.5 "/>
<text text-anchor="start" x="435.964" y="-165.3" font-family="Times,serif" font-size="14.00">create</text>
<text text-anchor="start" x="435.964" y="-151.3" font-family="Times,serif" font-size="14.00">destroy</text>
<text text-anchor="start" x="435.964" y="-137.3" font-family="Times,serif" font-size="14.00">edit</text>
<text text-anchor="start" x="435.964" y="-123.3" font-family="Times,serif" font-size="14.00">index</text>
<text text-anchor="start" x="435.964" y="-109.3" font-family="Times,serif" font-size="14.00">new</text>
<text text-anchor="start" x="435.964" y="-95.3" font-family="Times,serif" font-size="14.00">show</text>
<text text-anchor="start" x="435.964" y="-81.3" font-family="Times,serif" font-size="14.00">update</text>
<polyline fill="none" stroke="black" points="427.964,-74.5 579.794,-74.5 "/>
<polyline fill="none" stroke="black" points="427.964,-50.5 579.794,-50.5 "/>
<text text-anchor="start" x="435.964" y="-35.3" font-family="Times,serif" font-size="14.00">_layout</text>
<text text-anchor="start" x="435.964" y="-21.3" font-family="Times,serif" font-size="14.00">organization_params</text>
<text text-anchor="start" x="435.964" y="-7.3" font-family="Times,serif" font-size="14.00">set_organization</text>
</g>
<!-- ApplicationController&#45;&gt;OrganizationsController -->
<g id="edge4" class="edge"><title>ApplicationController&#45;&gt;OrganizationsController</title>
<path fill="none" stroke="black" d="M457.612,-239.347C461.614,-227.51 465.818,-215.076 469.992,-202.731"/>
</g>
<!-- RecordsController -->
<g id="node7" class="node"><title>RecordsController</title>
<path fill="none" stroke="black" d="M610.014,-7.5C610.014,-7.5 735.745,-7.5 735.745,-7.5 741.745,-7.5 747.745,-13.5 747.745,-19.5 747.745,-19.5 747.745,-183.5 747.745,-183.5 747.745,-189.5 741.745,-195.5 735.745,-195.5 735.745,-195.5 610.014,-195.5 610.014,-195.5 604.014,-195.5 598.014,-189.5 598.014,-183.5 598.014,-183.5 598.014,-19.5 598.014,-19.5 598.014,-13.5 604.014,-7.5 610.014,-7.5"/>
<text text-anchor="middle" x="672.879" y="-180.3" font-family="Times,serif" font-size="14.00">RecordsController</text>
<polyline fill="none" stroke="black" points="598.014,-173.5 747.745,-173.5 "/>
<text text-anchor="start" x="606.014" y="-158.3" font-family="Times,serif" font-size="14.00">auth_endpoint_callback</text>
<text text-anchor="start" x="606.014" y="-144.3" font-family="Times,serif" font-size="14.00">index</text>
<text text-anchor="start" x="606.014" y="-130.3" font-family="Times,serif" font-size="14.00">show</text>
<polyline fill="none" stroke="black" points="598.014,-123.5 747.745,-123.5 "/>
<polyline fill="none" stroke="black" points="598.014,-99.5 747.745,-99.5 "/>
<text text-anchor="start" x="606.014" y="-84.3" font-family="Times,serif" font-size="14.00">_layout</text>
<text text-anchor="start" x="606.014" y="-70.3" font-family="Times,serif" font-size="14.00">callback_url</text>
<text text-anchor="start" x="606.014" y="-56.3" font-family="Times,serif" font-size="14.00">find_organization</text>
<text text-anchor="start" x="606.014" y="-42.3" font-family="Times,serif" font-size="14.00">get_resource</text>
<text text-anchor="start" x="606.014" y="-28.3" font-family="Times,serif" font-size="14.00">klass</text>
<text text-anchor="start" x="606.014" y="-14.3" font-family="Times,serif" font-size="14.00">unauthorized_request</text>
</g>
<!-- ApplicationController&#45;&gt;RecordsController -->
<g id="edge5" class="edge"><title>ApplicationController&#45;&gt;RecordsController</title>
<path fill="none" stroke="black" d="M503.051,-245.272C505.98,-243.09 508.928,-240.99 511.879,-239 543.2,-217.877 558.942,-226.042 588.879,-203 591.943,-200.642 594.97,-198.154 597.952,-195.564"/>
</g>
<!-- SessionsController -->
<g id="node8" class="node"><title>SessionsController</title>
<path fill="none" stroke="black" d="M777.99,-21.5C777.99,-21.5 875.769,-21.5 875.769,-21.5 881.769,-21.5 887.769,-27.5 887.769,-33.5 887.769,-33.5 887.769,-169.5 887.769,-169.5 887.769,-175.5 881.769,-181.5 875.769,-181.5 875.769,-181.5 777.99,-181.5 777.99,-181.5 771.99,-181.5 765.99,-175.5 765.99,-169.5 765.99,-169.5 765.99,-33.5 765.99,-33.5 765.99,-27.5 771.99,-21.5 777.99,-21.5"/>
<text text-anchor="middle" x="826.879" y="-166.3" font-family="Times,serif" font-size="14.00">SessionsController</text>
<polyline fill="none" stroke="black" points="765.99,-159.5 887.769,-159.5 "/>
<text text-anchor="start" x="773.99" y="-144.3" font-family="Times,serif" font-size="14.00">create</text>
<text text-anchor="start" x="773.99" y="-130.3" font-family="Times,serif" font-size="14.00">destroy</text>
<text text-anchor="start" x="773.99" y="-116.3" font-family="Times,serif" font-size="14.00">new</text>
<text text-anchor="start" x="773.99" y="-102.3" font-family="Times,serif" font-size="14.00">setup</text>
<polyline fill="none" stroke="black" points="765.99,-95.5 887.769,-95.5 "/>
<polyline fill="none" stroke="black" points="765.99,-71.5 887.769,-71.5 "/>
<text text-anchor="start" x="773.99" y="-56.3" font-family="Times,serif" font-size="14.00">_layout</text>
<text text-anchor="start" x="773.99" y="-42.3" font-family="Times,serif" font-size="14.00">jwt_claims</text>
<text text-anchor="start" x="773.99" y="-28.3" font-family="Times,serif" font-size="14.00">jwt_token</text>
</g>
<!-- ApplicationController&#45;&gt;SessionsController -->
<g id="edge6" class="edge"><title>ApplicationController&#45;&gt;SessionsController</title>
<path fill="none" stroke="black" d="M502.881,-243.823C505.837,-242.077 508.84,-240.459 511.879,-239 611.094,-191.364 663.292,-260.915 756.879,-203 766.101,-197.294 774.426,-189.872 781.846,-181.645"/>
</g>
<!-- UsersController -->
<g id="node9" class="node"><title>UsersController</title>
<path fill="none" stroke="black" d="M533.166,-268.5C533.166,-268.5 614.593,-268.5 614.593,-268.5 620.593,-268.5 626.593,-274.5 626.593,-280.5 626.593,-280.5 626.593,-346.5 626.593,-346.5 626.593,-352.5 620.593,-358.5 614.593,-358.5 614.593,-358.5 533.166,-358.5 533.166,-358.5 527.166,-358.5 521.166,-352.5 521.166,-346.5 521.166,-346.5 521.166,-280.5 521.166,-280.5 521.166,-274.5 527.166,-268.5 533.166,-268.5"/>
<text text-anchor="middle" x="573.879" y="-343.3" font-family="Times,serif" font-size="14.00">UsersController</text>
<polyline fill="none" stroke="black" points="521.166,-336.5 626.593,-336.5 "/>
<text text-anchor="start" x="529.166" y="-321.3" font-family="Times,serif" font-size="14.00">index</text>
<polyline fill="none" stroke="black" points="521.166,-314.5 626.593,-314.5 "/>
<polyline fill="none" stroke="black" points="521.166,-290.5 626.593,-290.5 "/>
<text text-anchor="start" x="529.166" y="-275.3" font-family="Times,serif" font-size="14.00">_layout</text>
</g>
</g>
</svg>
