<?xml version="1.0" encoding="UTF-8" standalone="no"?>
<!DOCTYPE svg PUBLIC "-//W3C//DTD SVG 1.1//EN"
 "http://www.w3.org/Graphics/SVG/1.1/DTD/svg11.dtd">
<!-- Generated by graphviz version 2.38.0 (20140413.2041)
 -->
<!-- Title: models_diagram Pages: 1 -->
<svg width="1386pt" height="288pt"
 viewBox="0.00 0.00 1385.55 288.00" xmlns="http://www.w3.org/2000/svg" xmlns:xlink="http://www.w3.org/1999/xlink">
<g id="graph0" class="graph" transform="scale(1 1) rotate(0) translate(4 284)">
<title>models_diagram</title>
<polygon fill="white" stroke="none" points="-4,4 -4,-284 1381.55,-284 1381.55,4 -4,4"/>
<!-- _diagram_info -->
<g id="node1" class="node"><title>_diagram_info</title>
<text text-anchor="start" x="172.599" y="-265.6" font-family="Times,serif" font-size="13.00">Models diagram</text>
<text text-anchor="start" x="172.599" y="-252.6" font-family="Times,serif" font-size="13.00">Date: Dec 12 2014 &#45; 15:16</text>
<text text-anchor="start" x="172.599" y="-239.6" font-family="Times,serif" font-size="13.00">Migration version: 20141122173448</text>
<text text-anchor="start" x="172.599" y="-226.6" font-family="Times,serif" font-size="13.00">Generated by RailRoady 1.2.0</text>
<text text-anchor="start" x="172.599" y="-213.6" font-family="Times,serif" font-size="13.00">http://railroady.prestonlee.com</text>
</g>
<!-- Application -->
<g id="node2" class="node"><title>Application</title>
<polygon fill="none" stroke="black" points="0,-63.5 0,-107.5 82.0967,-107.5 82.0967,-63.5 0,-63.5"/>
<text text-anchor="middle" x="41.0483" y="-92.3" font-family="Times,serif" font-size="14.00">Application</text>
<polyline fill="none" stroke="black" points="0,-85.5 82.0967,-85.5 "/>
<text text-anchor="middle" x="41.0483" y="-70.3" font-family="Times,serif" font-size="14.00"> </text>
</g>
<!-- AuthorizationServer -->
<g id="node3" class="node"><title>AuthorizationServer</title>
<polygon fill="none" stroke="black" points="99.8999,-63.5 99.8999,-107.5 230.197,-107.5 230.197,-63.5 99.8999,-63.5"/>
<text text-anchor="middle" x="165.048" y="-92.3" font-family="Times,serif" font-size="14.00">AuthorizationServer</text>
<polyline fill="none" stroke="black" points="99.8999,-85.5 230.197,-85.5 "/>
<text text-anchor="middle" x="165.048" y="-70.3" font-family="Times,serif" font-size="14.00"> </text>
</g>
<!-- Condition -->
<g id="node4" class="node"><title>Condition</title>
<polygon fill="none" stroke="black" points="248.045,-63.5 248.045,-107.5 320.052,-107.5 320.052,-63.5 248.045,-63.5"/>
<text text-anchor="middle" x="284.048" y="-92.3" font-family="Times,serif" font-size="14.00">Condition</text>
<polyline fill="none" stroke="black" points="248.045,-85.5 320.052,-85.5 "/>
<text text-anchor="middle" x="284.048" y="-70.3" font-family="Times,serif" font-size="14.00"> </text>
</g>
<!-- Encounter -->
<g id="node5" class="node"><title>Encounter</title>
<polygon fill="none" stroke="black" points="338.283,-63.5 338.283,-107.5 411.814,-107.5 411.814,-63.5 338.283,-63.5"/>
<text text-anchor="middle" x="375.048" y="-92.3" font-family="Times,serif" font-size="14.00">Encounter</text>
<polyline fill="none" stroke="black" points="338.283,-85.5 411.814,-85.5 "/>
<text text-anchor="middle" x="375.048" y="-70.3" font-family="Times,serif" font-size="14.00"> </text>
</g>
<!-- IdentityProvider -->
<g id="node6" class="node"><title>IdentityProvider</title>
<path fill="none" stroke="black" d="M838.55,-7.5C838.55,-7.5 1003.55,-7.5 1003.55,-7.5 1009.55,-7.5 1015.55,-13.5 1015.55,-19.5 1015.55,-19.5 1015.55,-151.5 1015.55,-151.5 1015.55,-157.5 1009.55,-163.5 1003.55,-163.5 1003.55,-163.5 838.55,-163.5 838.55,-163.5 832.55,-163.5 826.55,-157.5 826.55,-151.5 826.55,-151.5 826.55,-19.5 826.55,-19.5 826.55,-13.5 832.55,-7.5 838.55,-7.5"/>
<text text-anchor="middle" x="921.048" y="-148.3" font-family="Times,serif" font-size="14.00">IdentityProvider</text>
<polyline fill="none" stroke="black" points="826.55,-141.5 1015.55,-141.5 "/>
<text text-anchor="start" x="834.55" y="-126.3" font-family="Times,serif" font-size="14.00">id :integer</text>
<text text-anchor="start" x="834.55" y="-112.3" font-family="Times,serif" font-size="14.00">name :string</text>
<text text-anchor="start" x="834.55" y="-98.3" font-family="Times,serif" font-size="14.00">uri :string</text>
<text text-anchor="start" x="834.55" y="-84.3" font-family="Times,serif" font-size="14.00">client_id :string</text>
<text text-anchor="start" x="834.55" y="-70.3" font-family="Times,serif" font-size="14.00">registration_client_uri :string</text>
<text text-anchor="start" x="834.55" y="-56.3" font-family="Times,serif" font-size="14.00">registration_access_token :text</text>
<text text-anchor="start" x="834.55" y="-42.3" font-family="Times,serif" font-size="14.00">logo :string</text>
<text text-anchor="start" x="834.55" y="-28.3" font-family="Times,serif" font-size="14.00">created_at :datetime</text>
<text text-anchor="start" x="834.55" y="-14.3" font-family="Times,serif" font-size="14.00">updated_at :datetime</text>
</g>
<!-- Medication -->
<g id="node7" class="node"><title>Medication</title>
<polygon fill="none" stroke="black" points="430.169,-63.5 430.169,-107.5 509.928,-107.5 509.928,-63.5 430.169,-63.5"/>
<text text-anchor="middle" x="470.048" y="-92.3" font-family="Times,serif" font-size="14.00">Medication</text>
<polyline fill="none" stroke="black" points="430.169,-85.5 509.928,-85.5 "/>
<text text-anchor="middle" x="470.048" y="-70.3" font-family="Times,serif" font-size="14.00"> </text>
</g>
<!-- Observation -->
<g id="node8" class="node"><title>Observation</title>
<polygon fill="none" stroke="black" points="527.834,-63.5 527.834,-107.5 612.262,-107.5 612.262,-63.5 527.834,-63.5"/>
<text text-anchor="middle" x="570.048" y="-92.3" font-family="Times,serif" font-size="14.00">Observation</text>
<polyline fill="none" stroke="black" points="527.834,-85.5 612.262,-85.5 "/>
<text text-anchor="middle" x="570.048" y="-70.3" font-family="Times,serif" font-size="14.00"> </text>
</g>
<!-- Organization -->
<g id="node9" class="node"><title>Organization</title>
<path fill="none" stroke="black" d="M1045.6,-0.5C1045.6,-0.5 1214.5,-0.5 1214.5,-0.5 1220.5,-0.5 1226.5,-6.5 1226.5,-12.5 1226.5,-12.5 1226.5,-158.5 1226.5,-158.5 1226.5,-164.5 1220.5,-170.5 1214.5,-170.5 1214.5,-170.5 1045.6,-170.5 1045.6,-170.5 1039.6,-170.5 1033.6,-164.5 1033.6,-158.5 1033.6,-158.5 1033.6,-12.5 1033.6,-12.5 1033.6,-6.5 1039.6,-0.5 1045.6,-0.5"/>
<text text-anchor="middle" x="1130.05" y="-155.3" font-family="Times,serif" font-size="14.00">Organization</text>
<polyline fill="none" stroke="black" points="1033.6,-148.5 1226.5,-148.5 "/>
<text text-anchor="start" x="1041.6" y="-133.3" font-family="Times,serif" font-size="14.00">id :integer</text>
<text text-anchor="start" x="1041.6" y="-119.3" font-family="Times,serif" font-size="14.00">name :string</text>
<text text-anchor="start" x="1041.6" y="-105.3" font-family="Times,serif" font-size="14.00">resource_server_uri :string</text>
<text text-anchor="start" x="1041.6" y="-91.3" font-family="Times,serif" font-size="14.00">authorization_server_uri :string</text>
<text text-anchor="start" x="1041.6" y="-77.3" font-family="Times,serif" font-size="14.00">client_id :string</text>
<text text-anchor="start" x="1041.6" y="-63.3" font-family="Times,serif" font-size="14.00">registration_client_uri :string</text>
<text text-anchor="start" x="1041.6" y="-49.3" font-family="Times,serif" font-size="14.00">registration_access_token :text</text>
<text text-anchor="start" x="1041.6" y="-35.3" font-family="Times,serif" font-size="14.00">logo :string</text>
<text text-anchor="start" x="1041.6" y="-21.3" font-family="Times,serif" font-size="14.00">created_at :datetime</text>
<text text-anchor="start" x="1041.6" y="-7.3" font-family="Times,serif" font-size="14.00">updated_at :datetime</text>
</g>
<!-- Patient -->
<g id="node10" class="node"><title>Patient</title>
<polygon fill="none" stroke="black" points="630.607,-63.5 630.607,-107.5 685.49,-107.5 685.49,-63.5 630.607,-63.5"/>
<text text-anchor="middle" x="658.048" y="-92.3" font-family="Times,serif" font-size="14.00">Patient</text>
<polyline fill="none" stroke="black" points="630.607,-85.5 685.49,-85.5 "/>
<text text-anchor="middle" x="658.048" y="-70.3" font-family="Times,serif" font-size="14.00"> </text>
</g>
<!-- ResourceServer -->
<g id="node11" class="node"><title>ResourceServer</title>
<polygon fill="none" stroke="black" points="703.734,-63.5 703.734,-107.5 808.362,-107.5 808.362,-63.5 703.734,-63.5"/>
<text text-anchor="middle" x="756.048" y="-92.3" font-family="Times,serif" font-size="14.00">ResourceServer</text>
<polyline fill="none" stroke="black" points="703.734,-85.5 808.362,-85.5 "/>
<text text-anchor="middle" x="756.048" y="-70.3" font-family="Times,serif" font-size="14.00"> </text>
</g>
<!-- User -->
<g id="node12" class="node"><title>User</title>
<path fill="none" stroke="black" d="M1256.54,-28.5C1256.54,-28.5 1365.55,-28.5 1365.55,-28.5 1371.55,-28.5 1377.55,-34.5 1377.55,-40.5 1377.55,-40.5 1377.55,-130.5 1377.55,-130.5 1377.55,-136.5 1371.55,-142.5 1365.55,-142.5 1365.55,-142.5 1256.54,-142.5 1256.54,-142.5 1250.54,-142.5 1244.54,-136.5 1244.54,-130.5 1244.54,-130.5 1244.54,-40.5 1244.54,-40.5 1244.54,-34.5 1250.54,-28.5 1256.54,-28.5"/>
<text text-anchor="middle" x="1311.05" y="-127.3" font-family="Times,serif" font-size="14.00">User</text>
<polyline fill="none" stroke="black" points="1244.54,-120.5 1377.55,-120.5 "/>
<text text-anchor="start" x="1252.54" y="-105.3" font-family="Times,serif" font-size="14.00">id :integer</text>
<text text-anchor="start" x="1252.54" y="-91.3" font-family="Times,serif" font-size="14.00">provider :string</text>
<text text-anchor="start" x="1252.54" y="-77.3" font-family="Times,serif" font-size="14.00">uid :string</text>
<text text-anchor="start" x="1252.54" y="-63.3" font-family="Times,serif" font-size="14.00">name :string</text>
<text text-anchor="start" x="1252.54" y="-49.3" font-family="Times,serif" font-size="14.00">created_at :datetime</text>
<text text-anchor="start" x="1252.54" y="-35.3" font-family="Times,serif" font-size="14.00">updated_at :datetime</text>
</g>
<!-- Object -->
<g id="node13" class="node"><title>Object</title>
<ellipse fill="none" stroke="black" cx="423.048" cy="-243.5" rx="33.8596" ry="18"/>
<text text-anchor="middle" x="423.048" y="-239.3" font-family="Times,serif" font-size="14.00">Object</text>
</g>
<!-- Object&#45;&gt;Application -->
<g id="edge1" class="edge"><title>Object&#45;&gt;Application</title>
<path fill="none" stroke="black" d="M408.567,-226.982C400.831,-219.687 390.716,-211.599 380.048,-207 261.187,-155.757 199.303,-241.957 91.0483,-171 68.5233,-156.236 54.7566,-127.508 47.5174,-107.677"/>
</g>
<!-- Object&#45;&gt;AuthorizationServer -->
<g id="edge2" class="edge"><title>Object&#45;&gt;AuthorizationServer</title>
<path fill="none" stroke="black" d="M407.912,-227.185C400.164,-220.121 390.233,-212.174 380.048,-207 322.386,-177.705 294.161,-204.848 239.048,-171 213.126,-155.08 191.318,-127.184 178.235,-107.82"/>
</g>
<!-- Object&#45;&gt;Condition -->
<g id="edge3" class="edge"><title>Object&#45;&gt;Condition</title>
<path fill="none" stroke="black" d="M405.716,-227.687C397.971,-221.2 388.664,-213.582 380.048,-207 358.002,-190.156 347.4,-191.809 329.048,-171 312.338,-152.052 299.607,-125.816 292.021,-107.625"/>
</g>
<!-- Object&#45;&gt;Encounter -->
<g id="edge4" class="edge"><title>Object&#45;&gt;Encounter</title>
<path fill="none" stroke="black" d="M417.82,-225.508C409,-196.843 391.187,-138.95 381.566,-107.683"/>
</g>
<!-- Object&#45;&gt;Medication -->
<g id="edge6" class="edge"><title>Object&#45;&gt;Medication</title>
<path fill="none" stroke="black" d="M428.168,-225.508C436.804,-196.843 454.246,-138.95 463.666,-107.683"/>
</g>
<!-- Object&#45;&gt;Observation -->
<g id="edge7" class="edge"><title>Object&#45;&gt;Observation</title>
<path fill="none" stroke="black" d="M445.179,-229.533C465.985,-216.581 497.125,-195.163 519.048,-171 536.434,-151.838 551.054,-125.882 560.122,-107.814"/>
</g>
<!-- Object&#45;&gt;Patient -->
<g id="edge9" class="edge"><title>Object&#45;&gt;Patient</title>
<path fill="none" stroke="black" d="M455.579,-238.738C498.542,-232.168 574.218,-214.829 621.048,-171 639.172,-154.038 648.913,-126.639 653.778,-107.659"/>
</g>
<!-- Object&#45;&gt;ResourceServer -->
<g id="edge10" class="edge"><title>Object&#45;&gt;ResourceServer</title>
<path fill="none" stroke="black" d="M456.412,-240.779C510.667,-236.525 619.444,-221.807 694.048,-171 717.509,-155.022 735.4,-127.14 745.798,-107.794"/>
</g>
<!-- ActiveRecord::Base -->
<g id="node14" class="node"><title>ActiveRecord::Base</title>
<ellipse fill="none" stroke="black" cx="1130.05" cy="-243.5" rx="81.1422" ry="18"/>
<text text-anchor="middle" x="1130.05" y="-239.3" font-family="Times,serif" font-size="14.00">ActiveRecord::Base</text>
</g>
<!-- ActiveRecord::Base&#45;&gt;IdentityProvider -->
<g id="edge5" class="edge"><title>ActiveRecord::Base&#45;&gt;IdentityProvider</title>
<path fill="none" stroke="black" d="M1105.03,-226.32C1083.49,-212.192 1051.76,-190.89 1025.05,-171 1021.78,-168.568 1018.48,-166.074 1015.15,-163.538"/>
</g>
<!-- ActiveRecord::Base&#45;&gt;Organization -->
<g id="edge8" class="edge"><title>ActiveRecord::Base&#45;&gt;Organization</title>
<path fill="none" stroke="black" d="M1130.05,-225.209C1130.05,-211.565 1130.05,-191.434 1130.05,-170.714"/>
</g>
<!-- ActiveRecord::Base&#45;&gt;User -->
<g id="edge11" class="edge"><title>ActiveRecord::Base&#45;&gt;User</title>
<path fill="none" stroke="black" d="M1157.22,-226.527C1179.21,-213.017 1210.47,-192.475 1235.05,-171 1244.86,-162.432 1254.66,-152.666 1263.8,-142.888"/>
</g>
</g>
</svg>
